<svg id="Group_419" data-name="Group 419" xmlns="http://www.w3.org/2000/svg" xmlns:xlink="http://www.w3.org/1999/xlink" width="166.013" height="163.631" viewBox="0 0 166.013 163.631">
  <defs>
    <clipPath id="clip-path">
      <rect id="Rectangle_352" data-name="Rectangle 352" width="166.013" height="163.631" fill="#75a801"/>
    </clipPath>
  </defs>
  <g id="Group_418" data-name="Group 418" transform="translate(0 0)" clip-path="url(#clip-path)">
    <path id="Path_304" data-name="Path 304" d="M165.118,137.342c-.125-.177-.3-.33-.447-.5-.414-9.48-9.088-53.628-11.4-60.75.785-2.251.527-4.447-.906-5.81a4.229,4.229,0,0,0-1.837-.986c-1.45-6.835-7.826-35.922-14.188-63.805h17.7a2.746,2.746,0,0,0,0-5.493H29.421a2.746,2.746,0,0,0,0,5.493H54.743C48.9,31.083,43.289,54.708,41.877,57.935L18.135,83.993C-.1,100.06-.037,101.57,0,102.482a2.638,2.638,0,0,0,.984,1.952,4.828,4.828,0,0,0,2.985.833,8.989,8.989,0,0,0,1.477-.121,1.691,1.691,0,0,0,.763-.327c.062-.045,6.114-4.609,10.007-5.808a6.523,6.523,0,0,1,2.617-.026c1.614.176,3.614.419,5.455-1.133,2.355-1.983,2.254-5.157,2-6.837L41.2,78.163c.893,2.451,2.294,5.8,4.052,9.569l-2.217,9c-10.321,11.588-8.833,25.774-7.859,30.841l-4.847,19.014a8.549,8.549,0,0,0,8.293,10.655h.142L65.26,156.8c.009.009.013.025.025.03,1.444,1.316,14.609,3.078,31.115,3.078a206.479,206.479,0,0,0,25.286-1.5,7.211,7.211,0,0,0,.342.833,8.334,8.334,0,0,0,15.679-3.773c9.16-2.321,17.294-5.714,22.99-10.572,2.755-.406,4.851-1.928,5.249-4.116a4.532,4.532,0,0,0-.829-3.436M150.786,80c2.524,10.347,8.991,42.635,10.245,54.411a11.736,11.736,0,0,0-1.952-.536c-.378-.07-.757-.093-1.133-.125-.474-9.18-5.166-43.311-8.854-52.333A11.959,11.959,0,0,0,150.786,80m3.888,53.968a8.006,8.006,0,0,0-1.588.534l-40.329-14.014a20.777,20.777,0,0,1-.716-3.346l32.739-34.11a6.61,6.61,0,0,0,1.312-.217c2.853,6.763,8.54,43.962,8.582,51.152M149.988,72.78c.614.583.287,2.781-1.6,4.76a7.359,7.359,0,0,1-2.024,1.518,1.632,1.632,0,0,0-.644.276,3.413,3.413,0,0,1-1.443.251,1.747,1.747,0,0,0-1.528.6l-40.511,42.2a1.894,1.894,0,0,1-2.615-.008,1.874,1.874,0,0,1-.589-1.407,1.912,1.912,0,0,1,.674-1.418l43.033-39.952a1.729,1.729,0,0,0,.695-1.3,6.4,6.4,0,0,1,1.873-3.706,6.957,6.957,0,0,1,3.066-1.956,1.8,1.8,0,0,1,1.611.132m-38.1,55.089a7.777,7.777,0,0,0-1.091.517,7.978,7.978,0,0,0-1.458,1.273,10.294,10.294,0,0,0-4.811-4.743c.042-.038.1-.047.134-.085l4.509-4.7c.155.65.334,1.335.54,2.049a1.843,1.843,0,0,0,.125.423,29.6,29.6,0,0,0,2.052,5.262M62.078,43.991A7.856,7.856,0,0,0,57,43.447c1.788-7.585,4.518-22.764,7.105-37.954h64.366c6.269,29.471,12.707,62.145,13.752,67.455a9.68,9.68,0,0,0-2.136,4.43L109.262,106c-5.517-8.653-20.134-19.869-45.754-16.082l3.1-38.137a7.929,7.929,0,0,0-4.528-7.791M87.924,94.675,81.5,106.84a34.324,34.324,0,0,0-11.372.31c-1.163-1.66-3.9-6.475-7.037-12.207l.125-1.514c9.99-1.577,18.175-.795,24.709,1.246m3.27,1.178c7.93,3.242,12.985,8.295,15.491,12.536l-9.28,8.618a5.092,5.092,0,0,0-.523.566,20.838,20.838,0,0,0-11.931-9.888Zm55.945-26.4a9.135,9.135,0,0,0-1.928.867C143.43,61.266,137.677,32.207,132,5.493h.842c6.416,27.656,12.932,56.8,14.293,63.958M58.278,5.493h2.33c-3.072,18.032-6.306,35.845-7.84,40.488l-5.6,6.144C49.905,41.806,54.3,22.938,58.278,5.493M22.07,95.222c-.672.568-1.446.506-2.844.347a9.368,9.368,0,0,0-4.022.162c-3.907,1.2-9.231,4.99-10.695,6.069-.1.011-.213.017-.327.021,2.322-2.613,8.8-8.648,15.085-14.227l3.572,3.633c.162.85.427,2.987-.77,4M24.51,88l-2.794-2.836L55.449,48.147A4.449,4.449,0,0,1,63.174,51.5L60.092,89.4c-3.032-5.646-6.027-11.363-8.01-15.287l1.76-7.285a1.723,1.723,0,0,0-2.8-1.707l-4,3.45-.009.009ZM44,75.746l3.633-3.129c.272.536.585,1.159.94,1.862a1.68,1.68,0,0,0,.546,1.078C54.424,86,66.255,108.864,68.426,110.407a.23.23,0,0,1,.032.013,2.319,2.319,0,0,0,.219.1,5.367,5.367,0,0,0,2.458.695,7.089,7.089,0,0,1-2.851,1,6.61,6.61,0,0,1-5.253-2.122c-2.978-2.776-6.905-8.644-11.053-16.523A137.729,137.729,0,0,1,44,75.746m.731,24.248a131.171,131.171,0,0,0-6.837,18.612A30.45,30.45,0,0,1,44.73,99.994m36.691,53.088L38.7,153.8a4.954,4.954,0,0,1-2.609-.661,5.126,5.126,0,0,1-2.43-5.7l4.877-19.14a35.612,35.612,0,0,0,1.212-3.786c1.724-5.963,6.014-20.772,10.4-27.067a83.788,83.788,0,0,0,8.261,12.706l-.062.761-14.68,31.3a1.722,1.722,0,0,0,1.352,2.438l36.423,4.416ZM49.938,136.947l2.258-4.813c5.249,5.483,8.861,9.033,11.34,11.3l-5.646-.682Zm.94,4.949-3.087-.374.657-1.4Zm33.979,11.246.026-5.083c.489-.714,1.815-2.4,3.363-2.307.878.074,1.378.651,2.262,1.764a9.516,9.516,0,0,0,2.968,2.719c3.618,1.9,10.064,2.961,11.861,3.229.079.068.166.138.245.213-3.5.21-12.337-.062-20.726-.534m22.186-2.723a1.765,1.765,0,0,0-.776-.3c-.072-.009-7.579-1.04-11.187-2.932a6.6,6.6,0,0,1-1.879-1.826c-1.012-1.265-2.271-2.842-4.668-3.038-2.985-.259-5.157,2.013-6.193,3.389L69.82,144.2c-1.579-.744-9.214-8.231-16.061-15.4l7.4-15.787a10.014,10.014,0,0,0,6.535,2.7,8.829,8.829,0,0,0,.971-.057c4.681-.508,8.04-4.6,8.85-5.676,9.037.145,15.09,4.554,18.285,13.487.011.026.038.034.049.062a5.277,5.277,0,0,0,3.8,3.682l1.314.37a1.76,1.76,0,0,0,.468.064h.009c2.8,0,5.649,3.4,5.67,6.745-.67,3.7.31,8.248,3.066,12.447v0A21,21,0,0,0,114,151.188c-2.808.206-4.805.244-5.789.247a10.892,10.892,0,0,0-1.163-1.016m14.048,4.549c-3.988.47-8.008.795-11.963,1a2.563,2.563,0,0,0,.493-1.1c2.041-.045,5.366-.2,9.528-.674a12,12,0,0,0,1.945.519c-.006.085,0,.168,0,.255M125,138.705a1.724,1.724,0,0,0-.485,2.387l.206.313a1.666,1.666,0,0,0-2.187,2.237,1.66,1.66,0,0,0-2.44,1.522,1.719,1.719,0,0,0-2.345-.442,1.694,1.694,0,0,0-.736,1.429l-.719-1.088a1.725,1.725,0,0,0-2.385-.485,1.646,1.646,0,0,0-.578.716c-.087-.125-.187-.228-.27-.355-3.463-5.27-3.627-11.535-.364-13.68,3.242-2.154,8.925.5,12.392,5.759.306.468.559.954.816,1.433a1.646,1.646,0,0,0-.9.253m8.416,9.316a8.372,8.372,0,0,0-2.351-.823,12.245,12.245,0,0,0,.187-1.782,18.929,18.929,0,0,0-3.289-10.291l-.006-.009,22.788,6.371a82.884,82.884,0,0,1-17.33,6.535m3.646,4.086a7.233,7.233,0,0,0-.289-.714c-.111-.21-.259-.381-.383-.574a83.862,83.862,0,0,0,17.494-7.092,10.632,10.632,0,0,0,1.722.714c-5.013,3.387-11.433,5.876-18.544,7.666M157.7,141.439a5.681,5.681,0,0,1-3.89-2.192,1.7,1.7,0,0,0-1.254-.827l-28.976-8.1a13.426,13.426,0,0,0-8.255-3.229,16.388,16.388,0,0,1-1.154-2.468l38.3,13.3a1.73,1.73,0,0,0,1.724-.11,6.036,6.036,0,0,1,4.265-.561,6.136,6.136,0,0,1,3.824,2.049,1.208,1.208,0,0,1,.268.853c-.155.84-2.175,1.773-4.856,1.28" transform="translate(0.001 -0.001)" fill="#75a801"/>
  </g>
</svg>
