<svg id="Group_462" data-name="Group 462" xmlns="http://www.w3.org/2000/svg" xmlns:xlink="http://www.w3.org/1999/xlink" width="113.639" height="113.733" viewBox="0 0 113.639 113.733">
  <defs>
    <clipPath id="clip-path">
      <rect id="Rectangle_376" data-name="Rectangle 376" width="113.639" height="113.733" fill="#fcfaee"/>
    </clipPath>
  </defs>
  <g id="Group_461" data-name="Group 461" clip-path="url(#clip-path)">
    <path id="Path_387" data-name="Path 387" d="M57.294,0C58,11.948,58.723,23.9,59.4,35.844c.77,13.541,4.392,17.386,17.718,18.281,10.63.714,21.275,1.2,31.913,1.808a7.542,7.542,0,0,1,4.606,1.46c-7.038.416-14.075.846-21.114,1.244-5.984.339-11.969.647-17.954.959-9.169.477-14.325,5.455-14.939,14.776-.864,13.11-1.557,26.23-3.187,39.361q-1.18-19.354-2.367-38.71c-.491-7.845-4.057-12.965-10.414-14.792a22.782,22.782,0,0,0-4.928-.625c-12.889-.766-25.78-1.5-38.736-3.4,3.031-.146,6.063-.265,9.092-.443,10.137-.6,20.272-1.237,30.41-1.819,8.937-.513,14.1-5.8,14.635-15.032Q55.264,19.481,56.408.046L57.294,0" fill="#fcfaee"/>
  </g>
</svg>
