<svg xmlns="http://www.w3.org/2000/svg" xmlns:xlink="http://www.w3.org/1999/xlink" width="181.531" height="149.115" viewBox="0 0 181.531 149.115">
  <defs>
    <clipPath id="clip-path">
      <rect id="Rectangle_353" data-name="Rectangle 353" width="181.531" height="149.115" fill="#75a801"/>
    </clipPath>
  </defs>
  <g id="Group_421" data-name="Group 421" transform="translate(0 0)">
    <g id="Group_420" data-name="Group 420" transform="translate(0 0)" clip-path="url(#clip-path)">
      <path id="Path_305" data-name="Path 305" d="M0,85.512c.573-3.6.977-7.239,1.749-10.8A69.866,69.866,0,0,1,20.287,40.052Q31.986,28.073,44.1,16.5a53.58,53.58,0,0,1,15.086-9.76c.74,1.6,1.447,3.127,2.2,4.75a36.3,36.3,0,0,0-3.953,2.133c-3.987,2.827-8.235,5.4-11.775,8.715C38.158,29.361,30.909,36.667,23.812,44.1,12.622,55.811,6.637,69.9,5.488,86.049a2.914,2.914,0,0,0,.143.581c.3-.728.535-1.244.728-1.776A61.806,61.806,0,0,1,21.023,61.924C34.3,48.717,47.5,35.432,60.767,22.216A77.147,77.147,0,0,1,84.854,6.062c-1.978.149-3.968.212-5.931.472-2.1.281-4.2.675-6.266,1.151-2,.457-3.959,1.082-6.13,1.688-.577-1.634-1.135-3.213-1.877-5.312,4.851-.992,9.47-2.208,14.17-2.839a60.326,60.326,0,0,1,26.086,2.311,7.924,7.924,0,0,0,6.91-1.017,15.333,15.333,0,0,1,23.741,11.639,14.1,14.1,0,0,1-2.332,9.443,8.565,8.565,0,0,0-1.08,7.4c.946,3.645,1.478,7.392,2.309,11.068a2.713,2.713,0,0,0,1.369,1.69,22.836,22.836,0,0,1,9.758,7.4,2.335,2.335,0,0,0,1.831.732,21.627,21.627,0,0,1,24.576,24.435,2.065,2.065,0,0,0,.918,2.212,21.508,21.508,0,0,1,.1,34.371,2.262,2.262,0,0,0-.988,2.516,19.951,19.951,0,0,1-1.135,10.295l-4.957-1.839c1.571-4.272,1.08-8.422-.384-12.591,6.545-3.135,10.55-8.095,10.569-15.474s-3.922-12.381-10.531-15.539c2.464-6.811,1.732-13.126-3.454-18.364-5.2-5.253-11.53-5.958-18.4-3.563-.294-.51-.56-.954-.809-1.409-3.188-5.817-8.026-9.074-14.721-9.08s-11.542,3.271-14.721,9.078c-.484.885-.736,1.483-2.068,1.08-6.484-1.963-12.41-1.011-17.288,3.995-4.825,4.951-5.561,10.836-3.634,17.244.067.226.159.445.231.669a1.989,1.989,0,0,1-.019.388c-6.375,3.016-10.4,7.986-10.437,15.328-.038,7.361,3.852,12.413,10.527,15.588-2.393,6.769-1.762,13.09,3.429,18.343,5.207,5.266,11.5,6.014,18.458,3.6,3.139,6.428,8.03,10.462,15.439,10.492,7.426.029,12.364-3.928,15.5-10.341a51,51,0,0,0,6.287,1.051,49.786,49.786,0,0,0,6.369-.489c.5,1.353,1.084,2.928,1.7,4.582a19.685,19.685,0,0,1-10.416,1.095,1.825,1.825,0,0,0-2.04.818,21.594,21.594,0,0,1-34.648.057,2.214,2.214,0,0,0-1.634-.872,21.765,21.765,0,0,1-24.062-14.663c-.055-.166-.134-.325-.262-.638-1.034.6-2.038,1.17-3.041,1.747a69.622,69.622,0,0,1-35.277,9.661c-7.308-.006-14.617-.83-21.923-1.321-6.66-.445-13.314-.931-19.973-1.407-.577-.042-1.151-.138-1.852-.224-.346-4.731-.7-9.374-1.021-14.021-.512-7.365-1-14.732-1.51-22.095A12.377,12.377,0,0,0,0,95.083V85.512M125.113,6.58a10.092,10.092,0,0,0-10.578.5,11.816,11.816,0,0,1-8.917,2.04,29.611,29.611,0,0,0-12.643.428A55.234,55.234,0,0,0,66.628,24.089C52.238,38.1,38.121,52.385,23.982,66.645a49.194,49.194,0,0,0-6.056,7.6C11.913,83.375,7.392,93.184,6.635,104.223c-.357,5.2.386,10.483.648,15.728.065,1.313.191,2.621.31,4.192,8.4-8.428,16.565-16.617,24.813-24.89l4.005,4.219L11.653,128.127c1.246.1,2.357.193,3.471.275,4.24.308,8.476.7,12.723.9,7.717.357,15.464,1.109,23.158.759,11.727-.533,22.46-4.611,32.2-11.182,1.5-1.011,1.531-4.867.1-5.962a21.563,21.563,0,0,1-.229-34.067,2.778,2.778,0,0,0,1.269-2.909A21.529,21.529,0,0,1,108.8,51.947a1.9,1.9,0,0,0,2.152-.919A19.828,19.828,0,0,1,124.1,42.784c1.6-.268,3.238-.3,5.184-.468-.69-3.139-1.147-6.182-2.047-9.085a14.12,14.12,0,0,1,1.573-12.666c2.036-3.127,1.986-6.537.159-10.135Q84.487,54.916,40.434,98.978c-1.4-1.292-2.642-2.443-4.018-3.712l88.7-88.686" transform="translate(0 -0.001)" fill="#75a801"/>
      <path id="Path_306" data-name="Path 306" d="M90.251,45.653c1.413-1,2.443-1.764,3.51-2.47a8.509,8.509,0,0,1,13.174,4.5c1.072,3.185,2.124,6.377,3.127,9.584,1.835,5.87-1.954,11.209-8.132,11.479a15.472,15.472,0,0,0-3.735.377c.923.686,1.86,1.353,2.768,2.057,5.06,3.934,4.989,10.452-.166,14.254-2.707,2-5.419,3.991-8.166,5.933a8.561,8.561,0,0,1-13.1-4.073c-.476-1.26-.891-2.544-1.464-4.192-.5,1.5-.874,2.649-1.273,3.785-2.074,5.912-8.384,7.944-13.484,4.322q-4.114-2.922-8.166-5.935a8.518,8.518,0,0,1-.279-13.82c1-.82,2.07-1.562,3.569-2.686-1.6,0-2.722.025-3.848,0C48,68.595,44.2,63.239,46.215,56.956c.99-3.087,1.961-6.18,2.99-9.257,1.927-5.767,8.055-7.866,13.174-4.521,1.082.707,2.122,1.478,3.5,2.447-.482-1.608-.885-2.865-1.233-4.138A8.473,8.473,0,0,1,72.9,30.441q5.137-.053,10.276,0A8.5,8.5,0,0,1,91.5,41.585c-.34,1.227-.744,2.437-1.246,4.068m8.988,17.89a28.378,28.378,0,0,0,3.336-.31,2.979,2.979,0,0,0,2.481-4.081q-1.548-5.071-3.295-10.085a2.755,2.755,0,0,0-3.94-1.848c-4.305,2.007-7.7,5.014-9.418,9.582-.7,1.854-.235,2.99,1.42,4.089a16.65,16.65,0,0,0,9.416,2.653m-42.91-.1c.038.153.075.306.115.459a84.337,84.337,0,0,0,8.98-2.378c2.619-.988,3.089-2.911,2.007-5.5-1.56-3.724-4.509-6.132-7.763-8.25-2.525-1.644-4.555-.944-5.5,1.908-.971,2.909-1.91,5.826-2.846,8.745-1,3.108.312,4.922,3.594,5.012.472.013.944,0,1.418,0M73.965,76.608l-.361-.113c-.059-.646-.078-1.3-.18-1.936-.545-3.383-1.791-4.345-5.18-3.949-4.182.487-7.5,2.722-10.477,5.475-1.579,1.462-1.286,3.506.52,4.874,2.634,1.992,5.327,3.909,8,5.842,2.231,1.608,4.3,1.191,5.247-1.4,1.038-2.85,1.638-5.857,2.426-8.793m13.514-6.09c-2.928-.042-3.758.606-4.379,2.785-1.275,4.477-.111,8.65,1.743,12.664.9,1.954,2.925,2.286,4.794.975,2.8-1.963,5.557-3.98,8.294-6.027,1.772-1.325,2-3.053.455-4.71a19.244,19.244,0,0,0-10.907-5.687M78.1,35.755v.01c-1.831,0-3.661-.055-5.49.015a2.718,2.718,0,0,0-2.888,3.07c.6,4.7,2.353,8.892,6.153,11.945,1.653,1.327,2.793,1.227,4.465-.088,3.651-2.873,5.262-6.893,6.088-11.261.421-2.227-.9-3.6-3.192-3.678-1.709-.057-3.422-.013-5.136-.013M69.8,65.133c4.282.218,6.721,2.33,8.313,5.905a8.747,8.747,0,0,1,8.241-5.951c-3.234-2.674-4.087-5.849-3.211-9.751-3.387,2.324-6.677,2.1-10.133.132A9.013,9.013,0,0,1,69.8,65.133" transform="translate(50.108 33.366)" fill="#75a801"/>
      <path id="Path_307" data-name="Path 307" d="M79.928,61.084,84.192,64.3c-1.558,1.466-2.982,2.808-4.5,4.238-1.16-1.541-2.168-2.886-3.139-4.177,1.156-1.12,2.2-2.133,3.38-3.276" transform="translate(83.979 67.013)" fill="#75a801"/>
      <path id="Path_308" data-name="Path 308" d="M37.282,11.3l3.655,3.473L37.1,18.286c-.948-1.166-2.009-2.472-3.093-3.808L37.282,11.3" transform="translate(37.309 12.395)" fill="#75a801"/>
      <path id="Path_309" data-name="Path 309" d="M37.161,18.614l-3.412,3.4-3.473-3.821,3.51-3.366c1.067,1.2,2.181,2.451,3.374,3.792" transform="translate(33.215 16.26)" fill="#75a801"/>
      <path id="Path_310" data-name="Path 310" d="M59.589,19.208,56.07,22.662C55.13,21.6,54.017,20.353,52.815,19l3.536-3.2,3.238,3.408" transform="translate(57.942 17.333)" fill="#75a801"/>
    </g>
  </g>
</svg>
