<svg xmlns="http://www.w3.org/2000/svg" xmlns:xlink="http://www.w3.org/1999/xlink" width="596.312" height="694.748" viewBox="0 0 596.312 694.748">
  <defs>
    <clipPath id="clip-path">
      <rect id="Rectangle_371" data-name="Rectangle 371" width="596.312" height="694.748" fill="none"/>
    </clipPath>
  </defs>
  <g id="Group_452" data-name="Group 452" transform="translate(0 0.001)">
    <g id="Group_451" data-name="Group 451" transform="translate(0 -0.001)" clip-path="url(#clip-path)">
      <g id="Group_453" data-name="Group 453">
        <path id="Path_345" data-name="Path 345" d="M796.774,883.259a59.258,59.258,0,1,1,59.258-59.221,59.285,59.285,0,0,1-59.258,59.221m0-2.622c31.044,0,56.6-25.378,56.628-56.23.029-31.5-25.242-57.028-56.475-57.042a56.636,56.636,0,1,0-.153,113.272" transform="translate(-275.656 -285.836)" fill="#4ba300"/>
        <path id="Path_346" data-name="Path 346" d="M832.172,859.668,813.88,805.256c1.927-.177,3.771-.326,5.609-.52a2.157,2.157,0,1,0-.5-4.27c-2.921.175-5.842.478-8.764.486-4.838.013-9.676-.157-14.513-.273-1.093-.026-2.182-.168-3.275-.22a2.114,2.114,0,0,0-2.358,2.075,2.04,2.04,0,0,0,2.041,2.2c1.551.16,3.106.274,4.652.466a1.077,1.077,0,0,1,.743.559q3.806,10.312,7.542,20.649a1.682,1.682,0,0,1-.007,1.024q-5.3,15.96-10.626,31.909c-.056.168-.142.326-.31.708l-18.421-54.794c1.946-.178,3.768-.334,5.587-.517a2.151,2.151,0,1,0-.376-4.277c-3.113.18-6.224.408-9.338.537-2.186.09-4.375.051-6.564.065a6.617,6.617,0,0,1-.661-.08c8.3-11.922,19.315-19.506,33.527-21.971,16.2-2.81,30.5,1.524,42.908,12.353-.419.036-.841.054-1.256.111a9.04,9.04,0,0,0-7.562,10.075,15.065,15.065,0,0,0,1.794,5.5c.947,1.725,1.969,3.409,2.99,5.093,2.853,4.707,4.759,9.729,4.278,15.306a45.138,45.138,0,0,1-1.691,8.5c-2.2,7.673-4.578,15.3-6.885,22.939-.054.177-.123.351-.271.772" transform="translate(-285.687 -290.858)" fill="#4ba300"/>
        <path id="Path_347" data-name="Path 347" d="M824.48,866.662l15.862,43.446a51.066,51.066,0,0,1-31.081.782c5.065-14.719,10.107-29.373,15.219-44.228" transform="translate(-302.477 -323.931)" fill="#4ba300"/>
        <path id="Path_348" data-name="Path 348" d="M755.376,826.87l24.032,65.844c-11.722-5.818-20.146-14.691-24.917-26.826-5.138-13.07-4.712-26.114.637-39.022l.248,0" transform="translate(-280.651 -309.057)" fill="#4ba300"/>
        <path id="Path_349" data-name="Path 349" d="M873.153,889.141c.145-.492.209-.75.3-1q7.507-21.706,15.036-43.4a75.669,75.669,0,0,0,3.238-10.745,41.136,41.136,0,0,0,.622-11.351,4.15,4.15,0,0,1,.019-1.134,49.629,49.629,0,0,1,4.4,36.056c-3.437,13.682-11.454,24.05-23.613,31.578" transform="translate(-326.357 -307.053)" fill="#4ba300"/>
      </g>
      <path id="Path_350" data-name="Path 350" d="M206.836,317.006a14.106,14.106,0,0,0-6-1.474c-2.43-.057-4.863-.009-7.295,0-.258,0-.515.049-.807.078v19.815c.208.027.358.06.507.063,1.458.04,2.915.086,4.373.109a22.081,22.081,0,0,0,5.262-.525,14.024,14.024,0,0,0,4.516-1.655,8.106,8.106,0,0,0,3.947-5.4,12.661,12.661,0,0,0,.153-4.483,8.367,8.367,0,0,0-4.657-6.527" transform="translate(-72.038 -117.925)" fill="#b6baff"/>
      <path id="Path_351" data-name="Path 351" d="M262.352,277.385c19.414-15.162,25.881-29.5,18.885-46.16-2.808-6.686-8.264-12.9-13.946-17.6-9.789-8.092-21.8-7.034-33.666-4.113,3.24-25.379-2.905-40.756-20.14-47.078-6.8-2.494-15.079-2.75-22.36-1.725-12.014,1.693-19.892,10.159-25.542,20.853-14.716-20.2-30.394-27.088-47.153-19.369-6.865,3.162-13.295,8.877-17.9,14.961-7.167,9.462-5.982,20.894-2.725,32.037-27.286-2.2-42.039,3.431-47.443,20.776a45.9,45.9,0,0,0,.539,27.691c2.989,8.107,11.285,14.256,17.188,21.189-17.16,11.634-24.268,25.107-19.269,41.535,7.4,24.31,25.755,30.07,48.994,25.377-4.659,22.46,1.3,38.444,17.957,45.635a45.789,45.789,0,0,0,22.164,3.277c12.782-1.391,21.452-10.067,27.636-21.362,13.859,20.171,29.581,26.4,47.451,19.291,17.528-6.974,24.851-23.217,20.617-46.758,28.236,1.222,41.871-5.221,47.969-22.264,6.044-16.894.324-30.62-19.253-46.2M168.629,274.8a18.293,18.293,0,0,1-6.773,8.8,22.452,22.452,0,0,1-8.336,3.6,47.484,47.484,0,0,1-11.664.946c-.95-.018-1.9-.071-2.85-.1-.236-.006-.473.029-.778.05v18.36c0,.2.009.4-.006.6a.678.678,0,0,1-.7.718c-.154.013-.309.006-.465.006H126.708c-.155,0-.311.006-.465-.005-.454-.033-.638-.2-.688-.642a4.679,4.679,0,0,1-.009-.53V247.011c0-.133,0-.266,0-.4.025-.576.183-.743.766-.757.751-.017,1.5,0,2.256-.018,3.957-.09,7.913-.207,11.87-.272,2.211-.037,4.426-.062,6.634.029a29.165,29.165,0,0,1,11.788,2.745,18.674,18.674,0,0,1,10.656,13.781,23.8,23.8,0,0,1-.889,12.681m35.13,31.249a20.056,20.056,0,0,1-7.142,2.519,35.151,35.151,0,0,1-8.065.374,33.469,33.469,0,0,1-9.8-1.831c-.5-.183-.981-.4-1.473-.6a1.353,1.353,0,0,1-.936-1.429c.037-1.614.012-3.23.012-4.844q0-2.29,0-4.579c0-.133,0-.266,0-.4.023-.739.267-.895.891-.537a26.008,26.008,0,0,0,6.229,2.561,29.266,29.266,0,0,0,8.446,1.1,10.794,10.794,0,0,0,4.206-.784,2.8,2.8,0,0,0,1.608-1.828,2.34,2.34,0,0,0-.311-2.026,4.05,4.05,0,0,0-1.479-1.4c-1.028-.554-2.066-1.1-3.137-1.565-1.619-.7-3.283-1.3-4.907-1.991a29.224,29.224,0,0,1-5.545-3.1,13.219,13.219,0,0,1-5.374-7.19,13.5,13.5,0,0,1,.805-9.631,13.813,13.813,0,0,1,6.345-6.453,19.821,19.821,0,0,1,7.532-2.13,45,45,0,0,1,8.081.048,24.814,24.814,0,0,1,7.3,1.535c.824.336.989.539.99,1.426q.006,4.612,0,9.224c0,.763-.265.989-1.025.87a1.914,1.914,0,0,1-.551-.208,24.387,24.387,0,0,0-7.192-2.191,26.455,26.455,0,0,0-6.074-.368,13.19,13.19,0,0,0-2.594.487,2.664,2.664,0,0,0-1.118,4.511,7.56,7.56,0,0,0,1.688,1.266,35.182,35.182,0,0,0,5.066,2.291,37.347,37.347,0,0,1,8.917,4.481,11.687,11.687,0,0,1,5.2,8.432c.687,5.865-1.532,10.841-6.6,13.961" transform="translate(-17.66 -59.471)" fill="#bbb5fd"/>
      <path id="Path_352" data-name="Path 352" d="M756.013,175.92c-11.453-2.336-20.572-7.978-26.845-17.8a35.884,35.884,0,0,1-5.779-19.346c14.772-3.88,33.247,11.9,37.814,32.6,4.756-20.309,16.77-31.711,37.422-33.456,3.436,15.219-11.448,32.594-32.4,37.915,20.318,4.735,31.338,16.98,33.342,37.823-10.268.377-18.365-3.266-25.454-9.419-7.069-6.135-10.914-14.152-12.828-23.316-1.748,9.316-5.811,17.275-12.892,23.441-7.006,6.1-15.092,9.608-24.974,9.324a36.642,36.642,0,0,1,9.4-24.836c6.1-7.027,13.968-11.072,23.194-12.929" transform="translate(-270.38 -51.548)" fill="#bbb5fd"/>
      <g id="Group_454" data-name="Group 454">
        <path id="Path_353" data-name="Path 353" d="M211.3,702.081a34.588,34.588,0,0,0,3.208-2.932H199.855a93.767,93.767,0,0,0,9.329,3.353,2.785,2.785,0,0,0,2.112-.421" transform="translate(-74.699 -261.319)" fill="#4ba300"/>
        <path id="Path_354" data-name="Path 354" d="M226.382,704.561l-2.31,2.127,2.31.824Z" transform="translate(-83.751 -263.342)" fill="#4ba300"/>
        <path id="Path_355" data-name="Path 355" d="M239.727,768.8c-5.325,2.053-5.327,2.048-4.711,8.351l23.841-15.217a3.512,3.512,0,0,0-2.039.261q-8.548,3.3-17.091,6.6" transform="translate(-87.74 -284.766)" fill="#4ba300"/>
        <path id="Path_356" data-name="Path 356" d="M211.736,682.649a3.463,3.463,0,0,0,2.073-.936c4.659-4.266,9.268-8.589,13.882-12.905a12.33,12.33,0,0,0,.947-1.118c-.209-.148-.259-.215-.309-.215q-18.446-.034-36.892-.026a1.937,1.937,0,0,0-1.443.763c-2.655,4.662-5.237,9.365-7.962,14.281a5.983,5.983,0,0,0,.872.185c9.61.008,19.221.029,28.831-.029" transform="translate(-68.038 -249.468)" fill="#4ba300"/>
        <path id="Path_357" data-name="Path 357" d="M275.093,709.411l.406-.352-20.525-39.441-17.168,16,37.286,23.794" transform="translate(-88.885 -250.281)" fill="#4ba300"/>
        <path id="Path_358" data-name="Path 358" d="M273.909,734.687l-38.79-14.954v30.433L273.928,735.2c-.006-.172-.013-.343-.019-.515" transform="translate(-87.88 -269.014)" fill="#4ba300"/>
        <path id="Path_359" data-name="Path 359" d="M236.749,708.956c6.788,2.529,13.525,5.2,20.284,7.807.542.21,1.112.349,1.67.522l.173-.343-24-15.323c0,1.918.1,3.265-.026,4.59-.15,1.537.463,2.212,1.9,2.747" transform="translate(-87.771 -262.242)" fill="#4ba300"/>
        <path id="Path_360" data-name="Path 360" d="M209.741,750.444c1.319-.71,1.841-1.323,1.829-2.824-.072-9.062-.036-18.124-.036-27.186,0-4.71-.017-4.665-4.456-6.4a2.329,2.329,0,0,0-2.843.5c-6.059,5.606-12.174,11.151-18.284,16.7a23.939,23.939,0,0,1-2.019,1.432c1.028.788,1.64,1.192,2.177,1.679,5.365,4.873,10.873,9.6,16.007,14.711,2.46,2.448,4.577,3.028,7.627,1.388" transform="translate(-68.748 -266.781)" fill="#4ba300"/>
        <path id="Path_361" data-name="Path 361" d="M226.448,781.726v-3.008l-2.23.918,2.23,2.09" transform="translate(-83.806 -291.06)" fill="#4ba300"/>
        <path id="Path_362" data-name="Path 362" d="M296.16,663.656c-40.051-20.884-53.028-52.567-39.853-95.023-48.173,11.087-68.069,2.926-95.27-38.36-30.122,42.117-48.477,49.742-95.233,38.88,13.409,43.77-2.4,76.079-39.972,95.093,39.711,20.287,52.6,52.157,40.129,94.777,43.333-13.453,74.36.464,95.081,38.963,21.215-39.671,53.143-52.117,95.793-39.1-13.386-43.127-.318-74.431,39.326-95.233m-92.1,2.014q-12.7,24.733-25.63,49.349a3.2,3.2,0,0,1-2.331,1.452c-14.916.08-29.833.042-44.75.059a3.146,3.146,0,0,1-3-1.934c-3.32-6.07-6.7-12.106-10.041-18.164-1.222-2.217-.81-3.277,1.6-4.09,6.424-2.167,12.858-4.3,19.285-6.457.691-.232,1.371-.493,2.437-.879-4.64-4.239-9-8.221-13.359-12.2-2.333-2.129-4.68-4.243-7-6.385-1.944-1.794-1.935-2.8.054-4.622q9.3-8.5,18.62-16.981c.491-.447,1.047-.82,1.883-1.469-1.611-.575-2.72-.991-3.844-1.368q-8.971-3.014-17.947-6.015c-2.572-.866-2.981-1.862-1.7-4.176,3.343-6.058,6.73-12.09,10.037-18.166a3.28,3.28,0,0,1,3.233-1.886q21.972.04,43.944-.005a3.181,3.181,0,0,1,3.161,1.964c8.431,16.281,16.922,32.532,25.31,48.836a3.954,3.954,0,0,1,.039,3.139" transform="translate(-9.655 -198.199)" fill="#4ba300"/>
        <path id="Path_363" data-name="Path 363" d="M237.805,778.685l17.173,16,20.535-39.5-.4-.317-37.31,23.815" transform="translate(-88.884 -282.146)" fill="#4ba300"/>
        <path id="Path_364" data-name="Path 364" d="M214.38,787.02c-3.434-4.077-3.434-4.077-8.06-2.529-1.207.4-2.417.8-3.622,1.212-.929.316-1.854.647-2.78.973q.068.172.136.344Z" transform="translate(-74.723 -292.861)" fill="#4ba300"/>
        <path id="Path_365" data-name="Path 365" d="M213.517,797.007a3.783,3.783,0,0,0-2.356-.72c-9.14-.049-18.28-.033-27.42-.025-.491,0-.981.089-1.728.161,2.6,4.692,5.112,9.121,7.493,13.622a2.568,2.568,0,0,0,2.7,1.514c8.2-.054,16.4-.027,24.6-.027h12.086a10.231,10.231,0,0,0-.735-.95c-4.864-4.541-9.71-9.1-14.634-13.577" transform="translate(-68.031 -297.614)" fill="#4ba300"/>
      </g>
      <g id="Group_455" data-name="Group 455">
        <path id="Path_366" data-name="Path 366" d="M639.6,594.526c3.9.258,7.828.09,11.743.108.039,0,.078-.032.142-.061V572.52c-3.963,0-7.879-.072-11.791.025a9.817,9.817,0,0,0-6.967,3.135c-3.267,3.389-4.227,7.391-2.556,11.8a10.283,10.283,0,0,0,9.428,7.046" transform="translate(-235.236 -213.979)" fill="#d23ca7"/>
        <path id="Path_367" data-name="Path 367" d="M686.424,572.479A11.081,11.081,0,1,0,697.5,583.544a11.091,11.091,0,0,0-11.076-11.065" transform="translate(-252.43 -213.975)" fill="#d23ca7"/>
        <path id="Path_368" data-name="Path 368" d="M639.119,548.451c4.078.353,8.211.074,12.357.074V526.5c-3.814,0-7.572-.04-11.328.013a10.233,10.233,0,0,0-7.332,3.08,10.619,10.619,0,0,0-2.838,11.393,10.121,10.121,0,0,0,9.141,7.469" transform="translate(-235.239 -196.781)" fill="#d23ca7"/>
        <path id="Path_369" data-name="Path 369" d="M640.6,618.492a11.428,11.428,0,0,0-2.434.236,11.053,11.053,0,1,0,13.4,10.527c0-2.1,0-4.206,0-6.308V618.51c-.217-.013-.348-.028-.477-.028-3.495,0-6.99-.015-10.484.01" transform="translate(-235.271 -231.167)" fill="#d23ca7"/>
        <path id="Path_370" data-name="Path 370" d="M719.867,544.456c-8.043-6.414-17.738-9.153-25.491-12.979,7.763-4.464,17.535-8.044,25.572-15.12,18.239-16.058,18.4-45.219.556-61.89-6.206-5.8-13.879-10.921-21.256-12.058-84.1-12.952-168.308-12.635-252.4-.006-8.733,1.312-17.987,7.387-25.107,14.578-14.886,15.035-14.5,42.874.629,57.4,6.994,6.715,16.041,9.654,24.186,14.21a41.62,41.62,0,0,0,4.722,2.1c-8.971,5.592-18.86,9.448-26.661,17.087-17.352,16.991-17.132,45.281,1,60.828,8.993,7.709,20.5,12.78,31.19,14,80.821,9.213,161.714,10.647,242.466-1.569,7.457-1.128,15.336-5.318,21.605-10.9,19.947-17.774,19.516-49.31-1.013-65.679M605.289,503.4a5.4,5.4,0,0,0-.115.578,17.491,17.491,0,0,1-6.27,12.151c-.313.269-.636.527-.944.782.038.083.046.133.075.158.118.1.242.193.363.289A17.373,17.373,0,0,1,604.682,527c.3,1.189.41,2.425.607,3.64V532.1c-.1.74-.173,1.485-.3,2.22a17.709,17.709,0,0,1-27.956,11.275c-.152-.11-.313-.207-.554-.364v.814c0,4.605.014,9.211-.011,13.815a20.117,20.117,0,0,1-.242,3.1,17.684,17.684,0,1,1-31.735-13.235,51.6,51.6,0,0,1,3.774-4.108,17.333,17.333,0,0,1-7.179-14.243c-.024-5.994,2.575-10.765,7.363-14.464-.137-.086-.215-.127-.285-.18a17.744,17.744,0,0,1,10.985-31.917q13.607.008,27.214.006,1.26,0,2.519.09a17.6,17.6,0,0,1,15.745,13.117c.325,1.276.45,2.6.666,3.908Z" transform="translate(-153.542 -161.771)" fill="#d23ca7"/>
        <path id="Path_371" data-name="Path 371" d="M686.194,526.467c-3.407-.022-6.815,0-10.223,0-.189,0-.379.026-.573.041v22.125c3.319,0,6.569.009,9.819-.006a23.236,23.236,0,0,0,2.91-.134,11.079,11.079,0,0,0-1.933-22.023" transform="translate(-252.443 -196.772)" fill="#d23ca7"/>
      </g>
      <g id="Group_456" data-name="Group 456">
        <path id="Path_372" data-name="Path 372" d="M602.009,910.416a12.484,12.484,0,0,0-6.691.481c-3.457,1.3-6,3.548-6.887,7.275a14.33,14.33,0,0,0,.476,8.4,8.617,8.617,0,0,0,4.279,4.981c2.844,1.416,5.863,1.346,8.911.978.435-.053.456-.334.456-.687q-.013-5.178-.006-10.357c0-3.471-.007-6.942.009-10.413,0-.426-.133-.588-.548-.662" transform="translate(-219.782 -340.194)" fill="#ff6200"/>
        <path id="Path_373" data-name="Path 373" d="M568.142,857.821c25.076-11.886,36.837-30.786,31.972-57.559-3.71-20.419-16.968-33.927-37.027-38.2-27.556-5.865-47.157,6.438-59.53,31.5-14.967-26.157-31.6-35.6-55.917-32.3-18.555,2.52-36.427,17.945-40.032,36.492-5.371,27.641,5.457,47.832,31.846,60.232-24.474,11.568-35.958,29.74-32.358,55.864,2.681,19.456,18.015,35.59,38.006,39.633,27.236,5.508,46.013-6.652,58.785-31.2,12.1,24.068,30.412,36.342,56.895,31.5,20.609-3.771,34.94-16.511,39.143-37.2,5.485-27-6.466-46.276-31.783-58.754m-60.908,27.511c-3.757,0-7.513-.014-11.27.009a1.984,1.984,0,0,1-2-1.208c-3.129-5.939-6.32-11.846-9.493-17.762-.086-.16-.189-.309-.324-.529-.127.217-.215.358-.293.5q-4.914,9.207-9.818,18.421a1.152,1.152,0,0,1-1.131.673q-5.437,0-10.873.005c-.457,0-.535-.2-.37-.559a6.516,6.516,0,0,1,.391-.688q7.366-12.079,14.744-24.151a.96.96,0,0,0,0-1.162q-7.288-12.289-14.539-24.6a3.491,3.491,0,0,1-.237-.719,3.067,3.067,0,0,1,.73-.185c3.586-.012,7.173.008,10.759-.02a1.638,1.638,0,0,1,1.647,1.071c1.851,3.605,3.758,7.182,5.663,10.759,1.267,2.38,2.564,4.744,3.848,7.114.1.192.214.381.353.629.117-.181.2-.283.255-.4,3.143-5.974,6.309-11.937,9.4-17.938a1.891,1.891,0,0,1,2.02-1.224c3.151.077,6.3.023,9.456.038a2.675,2.675,0,0,1,.718.21,3.018,3.018,0,0,1-.214.647q-7.221,11.935-14.464,23.856a.83.83,0,0,0,.006,1.013q7.689,12.577,15.349,25.172a9.391,9.391,0,0,1,.45,1.022Zm37.889-1.889a39.347,39.347,0,0,1-7.09,2.11,41.378,41.378,0,0,1-9.963.783,22.326,22.326,0,0,1-10.111-2.777,17.1,17.1,0,0,1-8.7-12.708,22.673,22.673,0,0,1,.622-11.3c2.566-7.37,7.772-11.86,15.294-13.7a26.721,26.721,0,0,1,8.713-.616c.2.018.413,0,.728,0v-.767q0-7.248,0-14.5c0-.9.008-.909.928-.909h9.118c.944,0,.945,0,.945.934q0,22.905.012,45.81c0,1.96.167,3.92.257,5.879.008.17.009.341.031.509a1.061,1.061,0,0,1-.785,1.249" transform="translate(-151.851 -284.296)" fill="#ff6200"/>
      </g>
      <g id="Group_457" data-name="Group 457">
        <path id="Path_374" data-name="Path 374" d="M517.316,316.552c.553.113,14.727.091,15.139-.033-2.51-8.259-5.355-16.415-7.6-24.767-2.112,8.4-4.936,16.566-7.536,24.8" transform="translate(-193.356 -109.048)" fill="#ff6200"/>
        <path id="Path_375" data-name="Path 375" d="M616.029,314.1a9.586,9.586,0,0,0-3.647-.516,8.31,8.31,0,0,0-5.808,2.388,9.075,9.075,0,0,0-2.274,3.811,11.312,11.312,0,0,0-.589,2.6c.208.01.393.025.577.026q2.629,0,5.258,0c3.247-.005,6.495,0,9.742-.032a4.935,4.935,0,0,0,1.357-.246c.49-.147.5-.2.491-.7a7.95,7.95,0,0,0-5.106-7.324" transform="translate(-225.648 -117.205)" fill="#ff6200"/>
        <path id="Path_376" data-name="Path 376" d="M612.951,191.548v-80.23h-79.2V34.18h-77.83v236H691.658v-78.63ZM531.6,247.1a2.775,2.775,0,0,1-.463.019q-6.012,0-12.023,0c-.715,0-.937-.159-1.172-.839q-2.324-6.752-4.645-13.505c-.034-.1-.076-.193-.1-.292a.346.346,0,0,0-.4-.306c-.1.009-.206,0-.309,0H490.862c-.084.242-.155.434-.217.628q-2.13,6.627-4.257,13.254c-.273.849-.564,1.06-1.467,1.06-3.526,0-7.052-.012-10.578.009-.869.005-1.392-.111-.96-1.346q3.314-9.466,6.607-18.938,6.205-17.794,12.419-35.586a17.839,17.839,0,0,0,1.061-5.957c0-.658.16-.807.835-.807q7.457,0,14.912,0c.069,0,.138,0,.206,0,.508.021.617.1.79.577q.672,1.868,1.335,3.739,10.155,28.485,20.307,56.971a3.292,3.292,0,0,1,.189.745c.036.348-.108.513-.45.571m46.6-22.619c-.038.411-.077.822-.129,1.231a.848.848,0,0,1-.855.86c-1.836.121-3.67.256-5.508.324-.873.033-1.751-.072-2.627-.11-.7-.031-1.408-.077-2.112-.078q-8.9-.009-17.8,0h-.726c.075.439.123.809.2,1.172a11.811,11.811,0,0,0,2.092,4.779,10.368,10.368,0,0,0,4.8,3.348,19.466,19.466,0,0,0,8.216,1.088,45.837,45.837,0,0,0,7.526-1.184c.963-.235,1.9-.589,2.884-.9.184.173.16.436.161.687q0,1.626,0,3.251,0,2.761,0,5.521c0,.912-.182,1.182-1.007,1.531a27.28,27.28,0,0,1-5.889,1.661,45.914,45.914,0,0,1-10.071.6,25.7,25.7,0,0,1-8.366-1.614A20.733,20.733,0,0,1,536.5,233.4a28.23,28.23,0,0,1-1.381-7.014,29.834,29.834,0,0,1,1.7-12.731,23.117,23.117,0,0,1,8.742-11.455,18.58,18.58,0,0,1,8.57-3.157,33,33,0,0,1,6.129-.162,19.572,19.572,0,0,1,11.248,4.252,17.73,17.73,0,0,1,4.735,6.361,23.362,23.362,0,0,1,2.142,8.394,40.587,40.587,0,0,1-.19,6.592" transform="translate(-170.41 -12.775)" fill="#ff6200"/>
      </g>
      <path id="Path_377" data-name="Path 377" d="M115.205,903.684q0,16.786,0,33.572c.005,11.664,6.163,17.913,17.774,17.955,11.191.04,22.382.009,33.594.565h-3.012c-10.535,0-21.07-.051-31.6.023-10.509.074-16.728,6.36-16.746,16.8q-.027,15.8-.013,31.6a5.318,5.318,0,0,1-.691,3.169q0-10.553,0-21.106c0-4.708.041-9.415-.016-14.122-.12-9.844-6.391-16.238-16.236-16.331-11.644-.11-23.289-.026-34.951-.592h2.91c10.31,0,20.621.037,30.931-.014,10.972-.055,17.355-6.474,17.363-17.366q.012-17.113,0-34.226l.7.075" transform="translate(-23.661 -337.74)" fill="#d33ca8"/>
      <path id="Path_378" data-name="Path 378" d="M925.664,1079.851H914.392v-3.757h7.515v-7.515h3.757Z" transform="translate(-341.771 -399.401)"/>
      <path id="Path_379" data-name="Path 379" d="M580.277,1084.335H561.413v-3.757h18.864Zm-37.727,0H523.686v-3.757H542.55Zm-37.728,0H485.958v-3.757h18.864Zm-37.727,0H448.231v-3.757h18.864Zm-37.729,0H410.5v-3.757h18.863Zm-37.727,0H372.775v-3.757h18.864Zm-37.728,0H335.048v-3.757h18.863Zm-37.727,0H297.32v-3.757h18.864Zm-37.728,0H259.592v-3.757h18.863Zm-37.727,0H221.864v-3.757h18.864Zm-37.728,0H184.137v-3.757H203Zm-37.727,0H146.409v-3.757h18.864Zm-37.727,0H108.682v-3.757h18.864Zm-37.728,0H70.954v-3.757H89.818Z" transform="translate(-26.52 -403.886)"/>
      <path id="Path_380" data-name="Path 380" d="M34.1,1079.851H22.831v-11.272h3.757v7.515H34.1Z" transform="translate(-8.534 -399.401)"/>
      <path id="Path_381" data-name="Path 381" d="M26.588,677.025H22.831V658.636h3.757Zm0-36.777H22.831V621.859h3.757Zm0-36.778H22.831V585.081h3.757Zm0-36.777H22.831V548.3h3.757Zm0-36.778H22.831V511.525h3.757Zm0-36.777H22.831V474.748h3.757Zm0-36.778H22.831V437.97h3.757Zm0-36.777H22.831V401.193h3.757Zm0-36.777H22.831V364.416h3.757Zm0-36.777H22.831V327.638h3.757Zm0-36.778H22.831V290.86h3.757Zm0-36.778H22.831V254.082h3.757Zm0-36.777H22.831V217.305h3.757Zm0-36.778H22.831V180.527h3.757Zm0-36.778H22.831V143.749h3.757Zm0-36.777H22.831V106.972h3.757Zm0-36.778H22.831V70.194h3.757Z" transform="translate(-8.534 -26.236)"/>
      <path id="Path_382" data-name="Path 382" d="M26.589,34.1H22.831V22.831H34.1v3.757H26.589Z" transform="translate(-8.534 -8.533)"/>
      <path id="Path_383" data-name="Path 383" d="M580.278,26.588H561.414V22.831h18.864Zm-37.728,0H523.686V22.831H542.55Zm-37.727,0H485.959V22.831h18.864Zm-37.728,0H448.232V22.831H467.1Zm-37.728,0H410.5V22.831h18.864Zm-37.728,0H372.776V22.831h18.863Zm-37.727,0H335.048V22.831h18.864Zm-37.728,0H297.321V22.831h18.863Zm-37.727,0H259.593V22.831h18.864Zm-37.728,0H221.865V22.831h18.863Zm-37.727,0H184.138V22.831H203Zm-37.727,0H146.41V22.831h18.864Zm-37.728,0H108.682V22.831h18.864Zm-37.727,0H70.955V22.831H89.819Z" transform="translate(-26.521 -8.533)"/>
      <path id="Path_384" data-name="Path 384" d="M925.664,34.1h-3.757V26.588h-7.515V22.831h11.272Z" transform="translate(-341.771 -8.533)"/>
      <path id="Path_385" data-name="Path 385" d="M930.149,677.026h-3.757V658.637h3.757Zm0-36.777h-3.757V621.86h3.757Zm0-36.778h-3.757V585.082h3.757Zm0-36.777h-3.757V548.3h3.757Zm0-36.778h-3.757V511.526h3.757Zm0-36.777h-3.757V474.749h3.757Zm0-36.778h-3.757V437.971h3.757Zm0-36.777h-3.757V401.194h3.757Zm0-36.778h-3.757V364.416h3.757Zm0-36.777h-3.757V327.639h3.757Zm0-36.778h-3.757V290.861h3.757Zm0-36.777h-3.757V254.083h3.757Zm0-36.778h-3.757V217.305h3.757Zm0-36.777h-3.757V180.528h3.757Zm0-36.778h-3.757V143.75h3.757Zm0-36.777h-3.757V106.973h3.757Zm0-36.778h-3.757V70.195h3.757Z" transform="translate(-346.256 -26.236)"/>
      <rect id="Rectangle_367" data-name="Rectangle 367" width="32.353" height="32.353" fill="#b6baff"/>
      <rect id="Rectangle_368" data-name="Rectangle 368" width="32.353" height="32.353" transform="translate(0 662.395)" fill="#b6baff"/>
      <rect id="Rectangle_369" data-name="Rectangle 369" width="32.353" height="32.353" transform="translate(563.959)" fill="#b6baff"/>
      <rect id="Rectangle_370" data-name="Rectangle 370" width="32.353" height="32.353" transform="translate(563.959 662.395)" fill="#b6baff"/>
    </g>
  </g>
</svg>
